<svg width="24" height="24" viewBox="0 0 24 24" fill="none" xmlns="http://www.w3.org/2000/svg">
<path d="M11.0003 18.7498C10.9018 18.7503 10.8041 18.7311 10.7131 18.6933C10.6221 18.6555 10.5396 18.6 10.4703 18.5298L4.47032 12.5298C4.32987 12.3892 4.25098 12.1986 4.25098 11.9998C4.25098 11.8011 4.32987 11.6105 4.47032 11.4698L10.4703 5.46985C10.6125 5.33737 10.8005 5.26524 10.9948 5.26867C11.1891 5.2721 11.3745 5.35081 11.5119 5.48822C11.6494 5.62564 11.7281 5.81102 11.7315 6.00532C11.7349 6.19963 11.6628 6.38767 11.5303 6.52985L6.06032 11.9998L11.5303 17.4698C11.6708 17.6105 11.7497 17.8011 11.7497 17.9998C11.7497 18.1986 11.6708 18.3892 11.5303 18.5298C11.4611 18.6 11.3785 18.6555 11.2875 18.6933C11.1965 18.7311 11.0989 18.7503 11.0003 18.7498Z" fill="white"/>
<path d="M19 12.75H5C4.80109 12.75 4.61032 12.671 4.46967 12.5303C4.32902 12.3897 4.25 12.1989 4.25 12C4.25 11.8011 4.32902 11.6103 4.46967 11.4697C4.61032 11.329 4.80109 11.25 5 11.25H19C19.1989 11.25 19.3897 11.329 19.5303 11.4697C19.671 11.6103 19.75 11.8011 19.75 12C19.75 12.1989 19.671 12.3897 19.5303 12.5303C19.3897 12.671 19.1989 12.75 19 12.75Z" fill="white"/>
</svg>
